# xmcd
#
# Track frame offsets: 
#        150
#        16703
#        34522
#        50772
#        70391
#        84296
#        104794
#        122598
#        138558
#        153861
#        170455
#        189148
#        210395
#
# Disc length: 3044 seconds
#
# Revision: 0
# Processed by: cddbd v1.5.2PL0 Copyright (c) Steve Scherf et al.
# Submitted via: ExactAudioCopyFreeDBPlugin 1.0
#
DISCID=a40be20d
DTITLE=Connie Talbot - Beautiful World
DYEAR=2012
DGENRE=
TTITLE0=Count On Me
TTITLE1=Let It Be
TTITLE2=The Climb
TTITLE3=What The World Needs Now
TTITLE4=Fireflies
TTITLE5=Beautiful World
TTITLE6=Amazing Grace
TTITLE7=Pray
TTITLE8=Gift of A Friend
TTITLE9=Imagine
TTITLE10=Colours of the Wind
TTITLE11=Heal The World
TTITLE12=Hero
EXTD=
EXTT0=
EXTT1=
EXTT2=
EXTT3=
EXTT4=
EXTT5=
EXTT6=
EXTT7=
EXTT8=
EXTT9=
EXTT10=
EXTT11=
EXTT12=
PLAYORDER=
